<?xml version="1.0" standalone="no"?>
<!DOCTYPE svg PUBLIC "-//W3C//DTD SVG 20010904//EN"
 "http://www.w3.org/TR/2001/REC-SVG-20010904/DTD/svg10.dtd">
<svg version="1.0" xmlns="http://www.w3.org/2000/svg"
 width="3700.000000pt" height="3700.000000pt" viewBox="0 0 3700.000000 3700.000000"
 preserveAspectRatio="xMidYMid meet">
<metadata>
Created by potrace 1.11, written by Peter Selinger 2001-2013
</metadata>
<g transform="translate(0.000000,3700.000000) scale(0.100000,-0.100000)"
fill="#000000" stroke="none">
<path d="M13619 35541 c23 -12 30 -20 20 -24 -8 -3 4 -6 26 -6 l40 -1 -53 25
c-62 29 -83 33 -33 6z"/>
<path d="M13558 35503 c6 -2 18 -2 25 0 6 3 1 5 -13 5 -14 0 -19 -2 -12 -5z"/>
<path d="M13488 35493 c7 -3 16 -2 19 1 4 3 -2 6 -13 5 -11 0 -14 -3 -6 -6z"/>
<path d="M12730 35290 c-8 -5 -10 -10 -5 -10 6 0 17 5 25 10 8 5 11 10 5 10
-5 0 -17 -5 -25 -10z"/>
<path d="M12680 35270 c-8 -5 -10 -10 -5 -10 6 0 17 5 25 10 8 5 11 10 5 10
-5 0 -17 -5 -25 -10z"/>
<path d="M12600 35240 c-8 -5 -10 -10 -5 -10 6 0 17 5 25 10 8 5 11 10 5 10
-5 0 -17 -5 -25 -10z"/>
<path d="M12402 35153 c-29 -14 -51 -27 -49 -30 3 -2 31 9 63 26 71 36 60 39
-14 4z"/>
<path d="M12225 35065 c-22 -13 -35 -24 -30 -25 6 0 28 11 50 25 22 13 36 24
30 25 -5 0 -28 -11 -50 -25z"/>
<path d="M21698 35043 c7 -3 16 -2 19 1 4 3 -2 6 -13 5 -11 0 -14 -3 -6 -6z"/>
<path d="M14325 34965 c6 -3 133 -27 284 -55 256 -46 291 -54 280 -64 -2 -2
-166 -11 -364 -20 -198 -10 -484 -24 -635 -32 -151 -7 -308 -14 -347 -14 -40
0 -73 -3 -73 -8 0 -4 107 -45 238 -90 130 -46 251 -89 267 -96 l30 -13 -25 -6
c-14 -4 -97 -23 -185 -43 -458 -103 -1078 -278 -1545 -434 -626 -209 -1138
-419 -1585 -649 -449 -232 -628 -361 -955 -690 -381 -383 -747 -887 -1089
-1500 -94 -170 -113 -198 -280 -426 -128 -174 -396 -577 -526 -790 -180 -295
-133 -198 104 215 249 435 441 745 726 1170 577 862 1142 1571 1732 2171 117
119 213 220 213 224 0 8 23 22 -220 -142 -785 -531 -1215 -955 -1686 -1663
-523 -785 -1037 -1932 -1410 -3143 -23 -76 -40 -107 -123 -222 -179 -248 -273
-365 -295 -365 -12 0 -79 7 -151 16 -78 9 -277 18 -500 22 -293 5 -342 8 -233
12 128 6 139 8 157 29 14 16 19 31 15 47 -5 18 -2 24 10 24 9 0 16 5 16 11 0
14 25 39 39 39 6 0 11 7 11 15 0 8 9 15 19 15 10 0 22 7 25 16 3 8 11 12 17 9
6 -4 10 -1 8 6 -5 40 2 69 17 69 12 0 14 7 9 30 -5 23 -3 30 9 30 10 0 16 9
16 21 0 19 21 49 35 49 13 0 33 28 37 51 2 19 8 23 27 21 21 -2 23 1 19 37
l-3 39 53 17 c30 9 52 18 50 20 -2 2 -46 -9 -98 -26 -118 -37 -270 -79 -289
-79 -36 0 16 23 179 79 96 33 169 60 163 60 -21 1 -15 32 7 38 11 3 20 10 20
15 0 5 10 19 23 31 24 24 41 62 63 142 8 28 19 52 24 53 6 2 10 14 10 27 0 13
5 25 10 27 6 2 13 21 17 42 l6 38 -44 -7 c-87 -14 -31 3 106 33 77 17 212 47
301 66 88 20 168 36 177 36 9 0 18 4 22 9 3 5 10 67 16 138 5 70 11 137 12
148 2 15 -11 27 -53 47 -89 43 -341 123 -561 177 -192 48 -731 163 -736 157
-2 -1 69 -55 156 -119 87 -64 164 -124 172 -133 18 -22 34 -27 -275 80 -138
48 -248 84 -245 82 2 -2 72 -48 154 -101 83 -53 154 -101 159 -106 24 -23 -12
-15 -162 36 -88 30 -164 55 -169 55 -4 0 22 -17 59 -39 103 -60 247 -176 234
-188 -3 -4 -34 8 -69 24 -209 103 -561 151 -1007 140 -299 -8 -510 -25 -928
-74 l-143 -16 -72 -95 c-67 -88 -71 -96 -53 -106 112 -66 291 -216 268 -224
-6 -2 -71 27 -145 65 l-134 68 59 -125 c32 -68 64 -130 70 -137 7 -8 7 -17 2
-22 -5 -5 -70 34 -149 89 -77 54 -142 97 -144 95 -2 -2 6 -16 17 -32 43 -61
132 -260 132 -295 0 -15 -19 -8 -47 18 -29 26 -173 100 -207 106 -13 2 -24 -5
-31 -19 -7 -13 -19 -31 -28 -41 -21 -23 -21 -36 -2 -52 22 -18 9 -30 -25 -23
-22 4 -30 2 -30 -9 0 -8 -13 -27 -30 -43 -16 -16 -30 -34 -30 -40 0 -7 -9 -20
-20 -30 -11 -10 -20 -23 -20 -30 0 -7 -9 -20 -20 -30 -11 -10 -20 -23 -20 -30
0 -7 -9 -20 -20 -30 -11 -10 -20 -23 -20 -30 0 -7 -9 -20 -20 -30 -11 -10 -20
-23 -20 -30 0 -7 -9 -20 -20 -30 -11 -10 -20 -24 -20 -31 0 -7 -11 -21 -25
-32 -14 -11 -25 -24 -25 -29 0 -6 -9 -18 -20 -28 -11 -10 -20 -23 -20 -30 0
-7 -9 -20 -20 -30 -11 -10 -20 -23 -20 -30 0 -7 -9 -20 -20 -30 -11 -10 -20
-24 -20 -30 0 -7 -7 -18 -15 -25 -9 -7 -25 -32 -35 -55 -10 -23 -26 -48 -35
-55 -8 -7 -15 -18 -15 -25 0 -7 -7 -18 -15 -25 -31 -25 -6 -20 103 24 203 82
409 138 666 182 82 14 153 27 156 29 12 8 185 24 365 35 479 29 936 77 1300
136 291 47 674 125 740 150 10 4 13 2 10 -8 -3 -8 -29 -23 -58 -33 -56 -20
-275 -111 -397 -165 -163 -73 -606 -303 -801 -417 -113 -67 -225 -131 -250
-143 -24 -13 -134 -80 -244 -150 -326 -207 -527 -311 -840 -435 -233 -92 -339
-127 -540 -178 -255 -65 -615 -127 -805 -139 -42 -3 -46 -6 -72 -53 -15 -27
-32 -60 -37 -72 -5 -11 -14 -24 -20 -27 -5 -4 -22 -32 -37 -64 -43 -91 -122
-249 -173 -347 -25 -49 -53 -106 -60 -125 -7 -19 -44 -98 -82 -176 -38 -78
-69 -146 -69 -151 0 -6 -13 -35 -28 -64 -15 -30 -34 -70 -41 -89 -7 -19 -31
-72 -52 -117 -22 -44 -39 -85 -39 -90 0 -5 -13 -35 -30 -68 -16 -33 -30 -65
-30 -71 0 -5 -9 -29 -20 -52 -11 -22 -20 -45 -20 -50 0 -4 -9 -27 -20 -50 -11
-22 -20 -46 -20 -51 0 -6 -8 -25 -19 -43 -10 -19 -28 -63 -40 -98 -13 -36 -31
-84 -42 -107 -10 -24 -19 -49 -19 -56 0 -7 -4 -17 -9 -23 -5 -5 -19 -38 -31
-74 -12 -36 -28 -78 -35 -95 -7 -16 -21 -52 -30 -80 -9 -27 -24 -68 -34 -90
-10 -22 -23 -60 -31 -85 -7 -25 -17 -49 -22 -54 -4 -6 -8 -20 -8 -32 0 -13 -4
-26 -10 -29 -5 -3 -10 -17 -10 -30 0 -13 -4 -27 -10 -30 -5 -3 -10 -17 -10
-30 0 -13 -4 -27 -10 -30 -5 -3 -10 -17 -10 -30 0 -13 -5 -27 -10 -30 -6 -3
-10 -17 -10 -30 0 -13 -4 -27 -10 -30 -5 -3 -10 -17 -10 -30 0 -13 -4 -27 -10
-30 -5 -3 -10 -17 -10 -30 0 -13 -4 -27 -10 -30 -5 -3 -10 -17 -10 -30 0 -13
-4 -27 -10 -30 -5 -3 -10 -17 -10 -30 0 -13 -4 -27 -10 -30 -5 -3 -10 -15 -10
-26 0 -10 -4 -27 -9 -37 -14 -29 -31 -87 -31 -110 0 -11 -4 -24 -10 -27 -5 -3
-10 -17 -10 -30 0 -13 -5 -27 -10 -30 -6 -3 -10 -16 -10 -29 0 -12 -4 -26 -8
-32 -5 -5 -14 -34 -21 -64 -7 -30 -16 -64 -21 -75 -4 -11 -13 -40 -20 -65 -6
-25 -16 -59 -21 -76 -5 -17 -9 -39 -9 -51 0 -11 -3 -23 -7 -27 -7 -6 -18 -49
-111 -416 -75 -300 -93 -372 -97 -405 -1 -16 -12 -66 -24 -111 -11 -44 -34
-147 -50 -230 -17 -82 -38 -183 -47 -224 -8 -41 -20 -100 -25 -130 -5 -30 -14
-80 -19 -110 -13 -65 -26 -142 -40 -225 -5 -33 -14 -88 -20 -122 -26 -156 -32
-199 -61 -408 -5 -38 -14 -105 -19 -147 -6 -43 -15 -115 -20 -160 -12 -93 -22
-181 -44 -408 -9 -85 -20 -198 -26 -250 -40 -362 -64 -961 -63 -1590 0 -547 7
-787 39 -1260 124 -1881 553 -3773 1259 -5545 94 -237 198 -486 254 -607 11
-26 21 -49 21 -51 0 -3 19 -45 41 -94 23 -48 60 -128 83 -178 23 -49 58 -124
77 -165 19 -41 91 -190 162 -330 121 -243 178 -354 269 -520 23 -41 59 -109
81 -150 22 -41 81 -145 130 -230 49 -85 101 -175 114 -199 170 -300 620 -995
887 -1369 173 -243 454 -613 642 -847 246 -305 343 -419 649 -765 212 -240
348 -382 710 -745 412 -412 513 -507 926 -870 197 -173 402 -345 413 -345 5 0
33 -21 62 -48 29 -26 76 -65 104 -87 27 -22 73 -58 100 -80 47 -38 103 -82
180 -143 19 -15 46 -36 60 -45 14 -9 45 -33 70 -52 25 -19 61 -46 80 -60 19
-14 55 -41 80 -60 25 -19 61 -46 80 -60 19 -14 69 -50 110 -80 116 -84 221
-155 228 -155 4 0 21 -12 37 -28 17 -15 42 -33 57 -41 16 -8 28 -18 28 -23 0
-4 6 -8 13 -8 7 0 22 -8 33 -17 10 -10 31 -24 47 -32 15 -8 27 -18 27 -23 0
-4 6 -8 13 -8 7 0 22 -8 33 -17 10 -10 31 -24 47 -32 15 -8 27 -18 27 -23 0
-4 6 -8 13 -8 7 0 22 -8 33 -17 11 -10 27 -22 36 -28 9 -5 53 -35 99 -66 46
-31 100 -65 119 -75 19 -10 37 -21 40 -24 3 -3 12 -9 21 -15 10 -5 38 -25 63
-42 26 -18 49 -33 52 -33 3 0 37 -21 77 -47 40 -26 90 -57 112 -68 50 -27 89
-49 95 -55 10 -10 65 -41 83 -47 9 -3 17 -9 17 -14 0 -5 9 -9 20 -9 11 0 20
-4 20 -10 0 -5 6 -10 13 -10 7 0 23 -9 35 -20 12 -11 28 -20 36 -20 8 0 16 -3
18 -7 4 -10 57 -42 81 -50 9 -3 17 -9 17 -14 0 -5 9 -9 20 -9 11 0 20 -4 20
-9 0 -5 8 -11 18 -14 9 -4 37 -18 62 -33 25 -15 74 -43 110 -62 36 -19 72 -40
80 -47 40 -34 666 -354 973 -496 2216 -1032 4516 -1599 6972 -1719 279 -13
1048 -25 1106 -16 l45 7 13 217 c39 695 177 1204 433 1593 43 66 111 144 227
262 90 92 166 166 167 164 2 -2 -15 -58 -37 -126 -40 -123 -44 -149 -15 -114
24 29 237 302 280 357 128 167 434 482 586 605 183 148 312 213 420 212 l55 0
1 132 c3 326 60 705 148 987 15 48 19 44 32 -34 5 -27 14 -51 19 -52 6 -2 24
18 41 44 80 123 284 423 320 472 47 64 216 323 384 590 190 302 456 758 617
1059 l39 73 300 110 c455 166 836 299 841 294 2 -2 4 -49 4 -103 0 -84 -7
-128 -45 -284 -50 -201 -109 -503 -126 -644 -28 -225 -124 -836 -140 -890 -5
-16 -11 -57 -15 -90 -3 -33 -8 -74 -11 -91 l-4 -31 -93 -12 c-322 -41 -711
-158 -992 -299 -200 -100 -330 -190 -563 -391 -163 -140 -242 -230 -303 -345
-54 -103 -184 -295 -166 -246 16 44 17 52 2 27 -9 -15 -13 -31 -10 -36 3 -5 2
-17 -1 -26 -5 -13 -8 -14 -15 -3 -12 19 -24 1 -38 -57 -7 -27 -48 -116 -92
-197 -44 -80 -109 -207 -144 -281 -59 -124 -70 -140 -131 -194 -36 -32 -104
-102 -150 -156 -46 -53 -130 -134 -186 -180 -357 -286 -608 -653 -689 -1007
-23 -98 -34 -315 -22 -410 l9 -65 -64 -145 c-91 -209 -242 -620 -242 -661 0
-13 73 -11 402 11 2752 189 5446 1010 7868 2398 314 180 910 548 910 562 0 8
-290 385 -493 643 -663 839 -1151 1372 -1554 1694 -176 141 -405 293 -553 368
-70 35 -226 94 -278 106 l-47 10 51 53 c54 55 84 122 84 184 0 31 2 33 18 21
16 -13 16 -12 1 6 -9 11 -25 61 -37 110 -29 119 -87 235 -221 435 -191 287
-373 494 -564 641 -112 87 -193 132 -308 173 l-91 33 54 31 c30 17 84 42 119
57 43 18 83 45 120 82 l57 55 52 -17 c83 -27 289 -135 400 -210 454 -302 750
-676 750 -948 l0 -59 40 36 c154 139 508 303 1017 470 836 274 1936 521 2418
542 89 4 154 3 179 -4 l38 -11 157 146 c291 273 524 462 756 615 429 282 836
413 1178 378 199 -20 391 -94 572 -221 191 -135 592 -568 772 -837 34 -51 62
-82 71 -80 13 3 59 63 238 313 54 74 502 746 566 848 26 41 53 90 61 109 8 18
25 47 39 63 32 38 108 162 108 176 0 6 13 29 28 52 15 23 34 56 42 72 8 17 27
49 42 72 15 23 28 44 28 48 0 4 13 25 28 48 15 23 34 56 42 72 8 17 26 48 40
70 14 22 41 72 60 110 19 39 46 88 60 110 14 22 50 90 80 150 30 61 66 128 80
150 31 48 290 567 290 581 0 6 26 62 58 125 32 63 64 130 71 149 7 19 31 72
52 117 22 44 39 85 39 90 0 4 18 44 40 88 22 44 40 85 40 90 0 6 13 37 30 70
16 33 30 65 30 71 0 5 9 29 20 52 11 22 20 45 20 50 0 4 9 27 20 50 11 22 20
46 20 51 0 6 8 25 19 43 10 19 28 63 40 98 13 36 31 84 42 107 10 24 19 49 19
56 0 7 4 17 9 23 5 5 19 38 31 74 12 36 28 79 35 95 18 40 61 172 70 212 4 18
11 35 16 38 5 4 9 17 9 30 0 13 4 27 10 30 6 3 10 17 10 30 0 13 5 27 10 30 6
3 10 17 10 30 0 13 4 27 10 30 5 3 10 17 10 30 0 13 5 27 10 30 6 3 10 17 10
30 0 13 5 27 10 30 6 3 10 17 10 30 0 13 5 27 10 30 6 3 10 17 10 30 0 13 5
27 10 30 6 3 10 17 10 30 0 13 5 27 10 30 6 3 10 17 10 30 0 13 5 27 10 30 6
3 10 17 10 30 0 13 5 27 10 30 6 3 10 17 10 30 0 13 5 27 10 30 6 3 10 17 10
30 0 13 5 27 10 30 6 3 10 21 10 40 0 19 5 37 10 40 6 3 10 17 10 30 0 13 5
27 10 30 6 3 10 17 10 30 0 13 5 27 10 30 6 3 10 17 10 30 0 13 5 27 10 30 6
3 10 21 10 40 0 19 4 37 10 40 6 3 10 17 10 30 0 13 4 27 10 30 5 3 10 21 10
40 0 19 5 37 10 40 6 3 10 21 10 40 0 19 5 37 10 40 6 3 10 17 10 30 0 13 5
27 10 30 6 3 10 21 10 40 0 19 5 37 10 40 6 3 10 21 10 40 0 19 5 37 10 40 6
3 10 17 10 30 0 13 4 27 10 30 6 3 10 21 10 40 0 19 4 37 10 40 6 3 10 21 10
39 0 17 4 36 9 42 9 9 28 84 81 314 17 74 40 172 51 217 10 45 19 100 19 122
0 22 5 43 10 46 6 3 10 26 10 50 0 24 5 47 10 50 6 3 10 26 10 50 0 24 5 47
10 50 6 3 10 26 10 50 0 24 4 47 10 50 6 3 10 30 10 60 0 30 5 57 10 60 6 3
10 26 10 50 0 24 5 47 10 50 6 3 10 26 10 50 0 24 5 47 10 50 6 3 10 30 10 60
0 30 5 57 10 60 6 3 10 35 10 70 0 35 5 67 10 70 6 3 10 35 10 70 0 35 5 67
10 70 6 3 10 30 10 60 0 30 5 57 10 60 27 17 8 72 -67 189 -641 1005 -1293
1842 -1884 2421 -230 224 -367 344 -583 508 -88 66 -155 122 -150 124 6 2 104
-47 219 -108 944 -502 1736 -1018 2119 -1380 50 -46 86 -77 81 -69 -25 42
-556 763 -809 1100 -1598 2123 -2868 3536 -3650 4060 -98 65 -305 172 -322
166 -7 -3 -14 4 -17 15 -3 10 -1 17 3 14 5 -3 66 7 137 22 112 23 151 27 313
27 174 1 189 -1 257 -25 55 -19 70 -22 60 -10 -8 9 -99 122 -203 251 -103 129
-248 309 -322 398 -73 90 -131 166 -129 169 5 4 296 -189 802 -532 183 -123
180 -122 170 -104 -5 8 -122 189 -262 402 -139 214 -253 391 -253 394 0 11
166 -8 290 -33 152 -30 300 -79 412 -135 105 -53 158 -89 231 -157 31 -30 57
-52 57 -48 0 27 -586 865 -648 928 -29 29 -459 117 -717 147 -49 6 -142 14
-206 17 l-116 7 -221 436 c-121 240 -336 666 -477 946 -142 281 -280 554 -308
608 -28 53 -48 100 -45 103 5 4 117 -36 363 -131 11 -5 -17 18 -62 51 -292
211 -615 577 -944 1069 -239 356 -454 737 -733 1300 -289 581 -450 837 -812
1292 -271 340 -718 809 -1114 1168 -367 333 -996 837 -1385 1111 -63 44 -68
46 -45 18 14 -18 112 -139 219 -270 106 -130 182 -229 168 -218 -14 10 -140
105 -279 210 -1046 789 -2139 1457 -2942 1799 -510 216 -1028 343 -1686 412
-211 22 -975 25 -1170 5 -168 -18 -399 -50 -489 -68 -40 -8 -75 -13 -77 -11
-3 3 58 55 136 117 77 61 140 113 140 114 0 2 -131 -32 -292 -76 -161 -43
-298 -78 -305 -78 -9 0 -6 14 8 48 69 158 88 202 84 202 -2 0 -86 -72 -186
-160 -101 -88 -186 -156 -190 -152 -4 4 -33 87 -64 186 -31 98 -60 175 -64
170 -5 -5 -23 -73 -41 -150 l-33 -142 -56 36 c-159 102 -495 209 -833 267
-376 63 -694 82 -1513 90 -1027 9 -1704 23 -1970 40 -44 2 -75 3 -70 0z m735
-1455 c36 -6 227 -17 425 -25 632 -26 987 -64 1470 -156 416 -79 877 -222
1191 -369 l102 -47 48 30 c193 121 570 211 1034 247 80 7 222 25 316 41 585
99 1003 139 1460 139 354 0 615 -23 800 -71 130 -33 451 -144 621 -215 372
-154 826 -405 1180 -651 134 -93 142 -98 278 -138 77 -24 190 -62 250 -85 61
-23 148 -53 195 -66 354 -95 1071 -412 1512 -667 616 -356 1015 -662 1513
-1161 234 -234 351 -365 560 -626 423 -529 1125 -1761 1903 -3340 281 -571
628 -1288 779 -1609 63 -135 144 -304 180 -376 84 -166 154 -323 378 -845 511
-1191 808 -2022 1025 -2865 58 -225 73 -310 99 -550 97 -890 47 -1718 -155
-2530 -39 -156 -111 -405 -117 -405 -1 0 -2 215 -2 478 -1 629 -23 936 -120
1682 -83 634 -106 780 -169 1100 -67 340 -195 875 -226 945 -5 11 -39 124 -75
250 -258 897 -923 2635 -1403 3665 -249 535 -640 1325 -651 1315 -3 -3 2 -20
11 -38 57 -110 77 -157 68 -157 -5 0 -10 7 -10 15 0 8 -7 15 -15 15 -13 0 -12
-7 6 -42 12 -24 27 -50 34 -58 13 -15 76 -150 71 -150 -2 0 -38 63 -79 140
-46 85 -74 147 -71 158 4 11 3 13 -3 5 -5 -8 -33 33 -82 120 -155 276 -299
505 -457 727 -45 63 -100 152 -122 196 -79 156 -207 331 -391 531 -29 32 -104
135 -165 228 -121 184 -121 184 -313 452 -243 337 -315 426 -502 616 -281 287
-633 551 -1039 781 -182 103 -607 304 -619 293 -2 -2 91 -152 206 -333 116
-181 225 -354 244 -384 18 -30 42 -68 53 -85 10 -16 14 -26 7 -22 -7 4 -26 30
-44 56 -33 53 -29 51 -160 66 -146 18 -139 16 -139 42 0 22 -3 24 -25 19 -14
-3 -36 -9 -50 -12 -20 -5 -25 -2 -25 14 0 18 -8 20 -82 24 -78 4 -108 -2 -108
-23 0 -5 14 -9 32 -9 17 0 29 -2 26 -5 -2 -3 -45 -1 -94 4 -71 7 -78 9 -36 10
69 1 59 21 -10 21 -39 0 -57 5 -74 21 -21 20 -23 20 -47 4 -21 -13 -38 -15
-84 -9 -32 4 -73 7 -90 7 -18 -1 -31 3 -28 7 3 5 -18 7 -46 5 -36 -3 -56 1
-66 11 -9 8 -23 12 -34 9 -19 -6 -49 14 -49 34 0 6 -15 11 -32 12 -18 1 -61 3
-96 5 -40 2 -61 0 -57 -6 8 -13 -26 0 -102 39 -107 53 -246 154 -338 243 -49
48 -91 84 -93 80 -1 -4 7 -35 19 -67 30 -85 79 -258 75 -262 -2 -2 -10 15 -17
38 -11 33 -20 44 -43 50 -17 5 -35 3 -47 -4 -15 -9 -23 -9 -37 1 -9 7 -32 19
-49 27 -18 9 -33 20 -33 26 0 6 -9 8 -20 4 -11 -4 -20 -2 -20 4 0 6 -9 11 -20
11 -28 0 -76 26 -83 45 -4 8 -14 15 -24 15 -10 0 -24 9 -30 19 -10 16 -20 19
-48 14 -23 -4 -35 -2 -35 6 0 6 -9 11 -20 11 -11 0 -20 -4 -20 -10 0 -21 -20
-9 -26 15 -5 21 -12 25 -45 25 -21 0 -39 4 -39 9 0 14 -53 29 -147 42 -63 9
-88 17 -96 31 -7 10 -17 18 -24 18 -7 0 -13 5 -13 10 0 6 -9 10 -20 10 -11 0
-20 5 -20 10 0 6 -10 10 -23 10 -13 0 -27 4 -33 9 -5 5 -25 13 -44 18 -25 7
-36 16 -38 31 -2 12 -8 22 -13 22 -5 0 -9 8 -9 19 0 14 -10 20 -42 24 -24 3
-44 11 -46 16 -2 6 -10 11 -18 11 -8 0 -14 4 -14 8 0 5 -17 27 -37 49 -21 22
-44 49 -51 59 -7 10 -5 4 4 -15 57 -120 276 -453 459 -696 135 -180 231 -295
396 -475 262 -286 816 -958 723 -877 -25 21 -46 22 -86 1 -28 -15 -30 -15 -25
0 4 11 1 16 -12 16 -10 0 -26 15 -36 35 -11 19 -21 33 -23 31 -2 -2 26 -57 61
-123 97 -177 159 -304 152 -311 -3 -3 -13 5 -23 18 -65 90 -147 210 -201 298
-35 56 -66 100 -68 98 -3 -2 0 -14 7 -25 10 -19 8 -21 -17 -22 -15 -1 -49 -1
-74 0 -39 2 -47 -1 -56 -21 -10 -22 -15 -18 -129 98 -333 338 -691 801 -1066
1381 -128 197 -323 516 -414 679 l-39 69 -3 -282 c-1 -156 -6 -283 -10 -283
-4 1 -27 26 -52 57 -170 212 -530 588 -782 816 -419 378 -738 607 -1093 785
-303 151 -476 206 -801 252 -366 52 -667 110 -984 190 -85 22 -166 42 -180 46
-20 4 -22 3 -10 -5 12 -9 9 -10 -14 -5 -19 5 -27 3 -23 -3 4 -6 -4 -14 -18
-17 -14 -4 -25 -11 -25 -16 0 -14 -37 -12 -44 3 -5 10 -7 10 -12 0 -3 -7 -13
-13 -22 -13 -8 0 -12 -3 -9 -7 7 -6 -17 -23 -63 -43 -14 -6 -38 -9 -53 -6 -31
6 -104 -25 -113 -49 -3 -8 -15 -17 -25 -20 -11 -4 -31 -17 -44 -29 -13 -12
-50 -29 -82 -36 -92 -21 -113 -56 -70 -114 33 -44 44 -65 21 -41 -73 76 -190
256 -266 408 -53 106 -148 341 -148 366 0 10 -3 12 -10 5 -6 -6 -14 -146 -20
-350 -14 -456 -24 -670 -28 -577 -3 67 -5 73 -26 79 -18 4 -32 -4 -64 -35 -23
-23 -48 -41 -57 -41 -8 0 -15 -4 -15 -9 0 -5 -9 -13 -20 -16 -13 -4 -20 -15
-20 -30 0 -22 -4 -24 -37 -22 -33 2 -38 -1 -41 -21 -2 -12 -15 -30 -29 -39
-21 -14 -28 -14 -45 -4 -16 10 -22 10 -28 1 -4 -7 -12 -10 -18 -6 -19 12 -27
-144 -27 -534 0 -395 6 -497 46 -755 68 -440 224 -819 443 -1078 23 -29 71
-108 105 -177 195 -398 371 -604 596 -696 83 -34 98 -45 191 -138 56 -56 159
-168 228 -251 70 -82 131 -151 135 -153 5 -2 13 28 18 65 l9 68 21 -40 c12
-22 23 -35 23 -30 1 6 2 46 3 89 1 44 7 81 12 83 6 1 22 -27 37 -65 15 -37 61
-150 102 -252 45 -109 71 -187 65 -190 -6 -4 9 -42 35 -91 25 -46 46 -90 46
-97 0 -34 -185 25 -305 96 -61 36 -119 86 -242 209 -213 211 -318 280 -530
347 -163 51 -405 86 -595 86 -40 0 -99 4 -131 10 -32 5 -152 15 -267 21 l-209
13 21 35 c64 106 100 154 173 227 44 44 95 91 114 105 l34 25 -32 55 c-17 31
-31 59 -31 62 0 15 88 5 158 -17 14 -5 22 -3 22 4 0 16 -135 218 -230 345 -99
132 -169 213 -349 406 -98 106 -168 193 -251 315 -331 486 -765 989 -1158
1345 -302 274 -613 500 -895 649 l-87 47 27 24 c16 13 66 53 112 89 l84 65
-394 6 c-346 4 -407 8 -499 26 -171 34 -373 46 -674 40 -334 -7 -558 -34 -896
-108 -150 -32 -503 -130 -496 -137 4 -3 92 19 132 35 14 5 15 3 5 -15 -8 -15
-8 -21 2 -25 6 -2 -10 -7 -38 -11 -88 -13 -379 -74 -410 -86 -16 -6 -86 -25
-155 -41 -709 -168 -1278 -420 -1616 -717 -209 -184 -445 -503 -656 -887 -112
-204 -353 -700 -439 -905 -379 -903 -760 -2082 -1225 -3790 -49 -179 -84 -278
-54 -152 7 27 5 32 -11 32 -10 0 -19 5 -19 10 0 6 -11 16 -25 22 -22 10 -26
17 -23 47 2 26 9 39 26 46 22 10 31 45 12 45 -16 0 -11 63 10 125 11 33 19 63
17 68 -3 9 -208 -615 -288 -873 -49 -160 -196 -663 -235 -805 -15 -55 -61
-185 -102 -290 -140 -358 -263 -714 -372 -1080 -70 -235 -71 -237 -177 -419
-133 -225 -183 -322 -247 -469 -145 -331 -235 -684 -287 -1118 -19 -157 -23
-238 -23 -549 -1 -535 28 -809 160 -1510 l4 -25 -10 25 c-17 38 -182 703 -246
990 -63 283 -64 294 -44 595 55 827 186 1782 376 2725 82 410 100 477 180 677
85 213 277 713 448 1165 112 298 149 409 160 493 37 262 82 495 121 615 60
184 79 259 126 488 114 555 259 1004 395 1225 48 78 39 93 -15 23 -24 -31 -45
-56 -46 -56 -2 0 12 39 30 88 18 48 54 143 80 212 160 425 226 586 458 1116
75 172 377 778 384 770 2 -2 -5 -25 -15 -52 -26 -66 -43 -129 -32 -118 5 5 28
54 50 109 23 55 84 186 135 290 366 744 867 1389 1430 1842 512 412 1077 674
1673 777 134 23 140 25 277 99 766 417 1921 753 3005 876 299 34 287 33 370
21z m11167 -1447 c46 -21 65 -41 159 -166 59 -78 116 -153 128 -166 l21 -25
-26 20 c-15 10 -91 73 -170 140 -79 66 -202 164 -274 219 -71 54 -137 104
-145 112 -12 11 150 -59 307 -134z m-14224 -210 c-7 -2 -21 -2 -30 0 -10 3 -4
5 12 5 17 0 24 -2 18 -5z m13206 -2029 c8 -7 -54 -2 -79 6 -17 6 -9 7 25 3 28
-3 52 -7 54 -9z m59 -11 c-10 -2 -26 -2 -35 0 -10 3 -2 5 17 5 19 0 27 -2 18
-5z m170 -10 c-27 -2 -69 -2 -95 0 -27 2 -5 3 47 3 52 0 74 -1 48 -3z m372
-34 c28 -6 50 -13 47 -15 -2 -2 -33 2 -68 10 -35 8 -56 14 -47 15 9 1 40 -4
68 -10z m105 -29 c13 -5 14 -9 5 -9 -8 0 -24 4 -35 9 -13 5 -14 9 -5 9 8 0 24
-4 35 -9z m65 -20 c18 -12 2 -12 -25 0 -13 6 -15 9 -5 9 8 0 22 -4 30 -9z
m-15500 -335 c0 -2 -10 -9 -22 -15 -22 -11 -22 -10 -4 4 21 17 26 19 26 11z
m-3885 -30 c-34 -13 -87 -23 -79 -16 5 5 18 11 29 14 23 6 65 7 50 2z m3798
-21 c-58 -41 -65 -52 -61 -91 4 -34 1 -42 -38 -80 -23 -23 -40 -44 -36 -47 3
-3 0 -6 -6 -6 -7 0 -12 -11 -12 -25 0 -16 -6 -25 -15 -25 -9 0 -15 -9 -15 -25
0 -14 -4 -25 -10 -25 -5 0 -10 -7 -10 -15 0 -8 -7 -15 -16 -15 -8 0 -12 -5 -9
-11 4 -6 -3 -9 -21 -7 -21 2 -31 -3 -39 -19 -7 -13 -19 -31 -28 -41 -10 -11
-18 -42 -20 -82 -4 -52 -9 -67 -26 -78 -11 -8 -21 -23 -21 -33 0 -10 -4 -21
-10 -24 -5 -3 -10 -14 -10 -24 0 -10 -11 -30 -25 -45 -14 -15 -25 -34 -25 -42
0 -7 -7 -14 -16 -14 -10 0 -14 -6 -10 -15 11 -30 -4 -46 -38 -39 -29 6 -30 5
-16 -12 14 -16 13 -17 -4 -11 -15 6 -17 4 -12 -17 4 -16 1 -26 -9 -30 -8 -3
-15 -17 -15 -30 0 -20 -6 -27 -27 -32 -51 -11 -52 -11 -46 -54 5 -36 3 -42
-16 -47 -24 -6 -25 -8 -11 -32 5 -10 7 -35 3 -55 -4 -27 -11 -38 -29 -42 -14
-4 -24 -14 -24 -24 0 -19 -49 -100 -60 -100 -4 0 -10 -18 -14 -41 -5 -29 -12
-43 -26 -46 -11 -3 -20 -12 -20 -19 0 -8 -4 -14 -10 -14 -5 0 -10 -9 -10 -20
0 -10 -9 -24 -20 -30 -24 -13 -26 -30 -5 -30 8 0 15 -9 15 -19 0 -19 -18 -31
-49 -31 -10 0 -18 -7 -18 -15 0 -49 -30 -132 -55 -153 -15 -13 -28 -32 -28
-43 0 -10 -9 -23 -20 -29 -11 -6 -20 -16 -20 -23 0 -7 -11 -28 -25 -47 -13
-18 -22 -37 -19 -41 3 -5 -2 -9 -11 -9 -12 0 -15 -6 -10 -20 4 -11 2 -20 -4
-20 -6 0 -13 -11 -17 -24 -3 -14 -12 -27 -20 -30 -8 -3 -14 -11 -14 -18 0 -7
-11 -22 -25 -34 -18 -15 -26 -33 -27 -58 -1 -22 -6 -36 -14 -36 -23 0 -44 -31
-44 -66 0 -19 -4 -34 -10 -34 -5 0 -10 -7 -10 -15 0 -8 -11 -25 -25 -37 -14
-12 -25 -26 -25 -31 0 -16 -53 -142 -62 -145 -4 -2 -8 -11 -8 -19 0 -16 -36
-53 -52 -53 -4 0 -8 -16 -8 -35 0 -19 -4 -35 -8 -35 -5 0 -14 -18 -21 -40 -6
-22 -17 -40 -23 -40 -6 0 -8 -13 -6 -32 4 -22 0 -36 -9 -43 -8 -6 -16 -30 -17
-53 -2 -30 -9 -48 -28 -65 -19 -18 -32 -46 -44 -101 -10 -42 -21 -76 -25 -76
-18 0 -39 -34 -39 -65 0 -19 -4 -45 -10 -60 -8 -21 -14 -24 -34 -19 -19 4 -26
1 -31 -16 -4 -12 -2 -27 4 -33 16 -16 14 -37 -4 -37 -8 0 -15 -7 -15 -15 0 -8
5 -15 10 -15 6 0 10 -7 10 -15 0 -11 -7 -14 -25 -9 -18 4 -25 2 -25 -8 0 -8
-11 -20 -25 -26 -17 -8 -25 -20 -25 -37 0 -14 -4 -25 -10 -25 -5 0 -10 -7 -10
-15 0 -8 -5 -15 -11 -15 -14 0 -39 -25 -39 -39 0 -6 5 -11 10 -11 21 0 9 -37
-15 -48 -15 -7 -25 -20 -25 -32 0 -12 -7 -28 -15 -36 -8 -9 -15 -25 -15 -38 0
-12 -7 -31 -15 -42 -8 -10 -15 -27 -15 -36 0 -25 -20 -23 -20 2 0 11 -5 20
-11 20 -21 0 -37 -27 -32 -53 4 -20 1 -27 -11 -27 -9 0 -16 8 -16 20 0 11 -3
20 -8 20 -17 0 -42 -42 -42 -70 0 -23 -4 -30 -20 -30 -18 0 -20 -4 -14 -40 4
-27 3 -40 -5 -40 -6 0 -11 6 -12 13 -1 18 -28 -47 -34 -85 -8 -48 -106 -368
-122 -398 -7 -14 -13 -32 -13 -41 0 -20 -98 -320 -107 -328 -3 -3 -3 3 0 14
20 72 244 800 372 1210 228 730 355 1157 490 1649 39 144 56 187 112 290 401
736 858 1242 1448 1605 93 57 139 80 88 45z m67 -137 c0 -2 -10 -12 -22 -23
l-23 -19 19 23 c18 21 26 27 26 19z m-100 -122 c-7 -9 -15 -13 -18 -10 -3 2 1
11 8 20 7 9 15 13 18 10 3 -2 -1 -11 -8 -20z m-30 -38 c0 -2 -10 -12 -22 -23
l-23 -19 19 23 c18 21 26 27 26 19z m-70 -91 c0 -2 -8 -10 -17 -17 -16 -13
-17 -12 -4 4 13 16 21 21 21 13z m14451 -393 c13 -16 12 -17 -3 -4 -17 13 -22
21 -14 21 2 0 10 -8 17 -17z m-14781 -113 c-6 -11 -13 -20 -16 -20 -2 0 0 9 6
20 6 11 13 20 16 20 2 0 0 -9 -6 -20z m-111 -210 c-86 -174 -123 -236 -75
-127 58 129 151 307 162 307 2 0 -37 -81 -87 -180z m-4021 83 c-10 -2 -28 -2
-40 0 -13 2 -5 4 17 4 22 1 32 -1 23 -4z m-120 -10 c-10 -2 -28 -2 -40 0 -13
2 -5 4 17 4 22 1 32 -1 23 -4z m-95 -10 c-7 -2 -21 -2 -30 0 -10 3 -4 5 12 5
17 0 24 -2 18 -5z m-86 -9 c-3 -3 -12 -4 -19 -1 -8 3 -5 6 6 6 11 1 17 -2 13
-5z m-70 -10 c-3 -3 -12 -4 -19 -1 -8 3 -5 6 6 6 11 1 17 -2 13 -5z m-60 -10
c-3 -3 -12 -4 -19 -1 -8 3 -5 6 6 6 11 1 17 -2 13 -5z m11851 -2847 c118 -43
124 -154 11 -213 -50 -26 -152 -24 -207 5 -68 35 -90 105 -50 156 45 57 162
82 246 52z m4874 -197 c20 -6 51 -24 68 -41 55 -56 32 -142 -46 -175 -43 -18
-135 -18 -179 0 -38 16 -75 68 -75 104 0 88 116 144 232 112z m-14765 -82 c-3
-8 -6 -5 -6 6 -1 11 2 17 5 13 3 -3 4 -12 1 -19z m9653 -32 c36 -17 34 -56 -5
-75 -35 -17 -161 -20 -188 -5 -16 9 -12 14 28 43 25 18 45 36 45 41 0 21 71
19 120 -4z m-9663 -8 c-3 -8 -6 -5 -6 6 -1 11 2 17 5 13 3 -3 4 -12 1 -19z
m14551 -174 c31 -22 30 -69 -4 -90 -56 -38 -167 -22 -197 27 -20 32 -3 47 47
39 26 -4 44 -5 41 -2 -8 8 48 40 70 41 11 1 31 -6 43 -15z m-13998 -470 c-17
-50 -24 -35 -9 16 7 24 15 38 17 32 2 -7 -2 -28 -8 -48z m-30 -94 c-6 -23 -13
-40 -15 -38 -2 2 1 23 7 46 6 24 13 41 15 38 2 -2 -1 -23 -7 -46z m-23 -72
c-3 -8 -6 -5 -6 6 -1 11 2 17 5 13 3 -3 4 -12 1 -19z m-23 -82 c-3 -15 -8 -25
-11 -23 -2 3 -1 17 3 31 3 15 8 25 11 23 2 -3 1 -17 -3 -31z m-20 -70 c-3 -15
-8 -25 -11 -23 -2 3 -1 17 3 31 3 15 8 25 11 23 2 -3 1 -17 -3 -31z m-177
-628 c-3 -8 -6 -5 -6 6 -1 11 2 17 5 13 3 -3 4 -12 1 -19z m-28 -112 c-6 -26
-13 -45 -16 -43 -2 3 1 26 8 51 6 26 13 45 16 43 2 -3 -1 -26 -8 -51z m-22
-78 c-3 -8 -6 -5 -6 6 -1 11 2 17 5 13 3 -3 4 -12 1 -19z m-59 -236 c-29 -116
-54 -209 -57 -207 -2 2 20 99 49 215 29 116 55 209 57 206 3 -2 -19 -99 -49
-214z m-61 -244 c-3 -8 -6 -5 -6 6 -1 11 2 17 5 13 3 -3 4 -12 1 -19z m-10
-40 c-3 -8 -6 -5 -6 6 -1 11 2 17 5 13 3 -3 4 -12 1 -19z m-17 -83 c-6 -31
-14 -54 -17 -52 -3 3 1 31 8 61 7 31 14 54 16 52 3 -2 -1 -30 -7 -61z m144
-52 c-120 -158 -236 -305 -229 -288 4 11 7 29 7 40 -1 14 1 16 7 7 6 -10 42
31 122 137 62 83 115 149 117 146 2 -2 -9 -21 -24 -42z m46 -13 c-12 -23 -24
-40 -26 -37 -3 3 4 24 16 47 12 23 24 40 26 37 3 -3 -4 -24 -16 -47z m-213
-22 c-3 -8 -6 -5 -6 6 -1 11 2 17 5 13 3 -3 4 -12 1 -19z m723 -19 c0 -4 -4
-11 -10 -14 -5 -3 -10 -22 -10 -41 0 -19 -4 -34 -10 -34 -5 0 -10 5 -10 10 0
6 -4 10 -10 10 -5 0 -10 -16 -10 -35 0 -19 -4 -35 -9 -35 -5 0 -16 -3 -25 -6
-19 -7 -22 21 -3 30 10 5 10 7 0 12 -22 10 -15 29 17 47 32 19 37 36 19 54 -8
8 -1 11 25 10 20 -1 36 -4 36 -8z m-736 -43 c-3 -21 -8 -35 -11 -32 -2 2 -1
20 3 40 3 21 8 35 11 32 2 -2 1 -20 -3 -40z m178 -28 c-11 -24 -27 -68 -37
-98 -10 -30 -21 -59 -25 -65 -4 -5 -13 -35 -20 -65 -7 -30 -21 -75 -31 -100
-10 -25 -19 -57 -21 -70 -2 -14 -6 -29 -10 -35 -3 -5 -9 -25 -13 -43 -4 -18
-9 -31 -12 -29 -10 10 83 325 137 462 15 38 30 79 35 90 4 12 9 15 12 8 2 -6
-5 -31 -15 -55z m-195 -40 c-3 -8 -6 -5 -6 6 -1 11 2 17 5 13 3 -3 4 -12 1
-19z m15783 -58 c0 -14 6 -48 13 -76 13 -49 12 -51 -5 -46 -18 4 -19 0 -13
-59 11 -116 25 -203 45 -278 10 -41 17 -78 14 -83 -3 -4 -5 -94 -5 -200 -1
-261 24 -410 96 -573 30 -67 116 -204 145 -230 35 -32 22 -37 -25 -9 -25 14
-45 24 -45 21 0 -6 72 -49 86 -51 6 -1 52 -39 102 -85 50 -46 113 -100 141
-122 83 -62 277 -182 433 -267 321 -177 544 -333 908 -636 292 -245 745 -679
807 -775 36 -55 67 -139 128 -342 36 -120 40 -140 28 -137 -12 3 -88 -38 -99
-54 -16 -21 0 -296 45 -773 7 -72 5 -107 -6 -80 -7 19 -185 317 -187 313 -1
-2 5 -93 14 -203 10 -110 20 -247 24 -305 4 -58 11 -161 16 -230 30 -403 66
-1082 80 -1535 12 -388 13 -872 2 -879 -5 -3 -14 36 -21 87 -93 704 -511 1510
-1075 2072 -72 72 -169 159 -216 193 -90 67 -86 67 -104 10 -11 -35 -24 -18
-16 19 10 43 6 53 -21 53 -14 0 -19 -7 -19 -25 0 -31 -11 -31 -148 -2 l-104
22 -34 85 c-63 153 -201 422 -284 555 -97 156 -244 352 -268 359 -9 2 -84 7
-167 11 -362 15 -579 42 -1400 170 -1017 159 -1562 269 -2025 406 -607 180
-1035 394 -1417 706 -89 72 -140 121 -105 99 6 -3 14 0 19 7 4 7 23 22 41 32
31 19 42 35 22 35 -15 0 -12 19 5 36 8 9 23 13 33 10 23 -8 62 27 62 55 0 38
29 54 97 54 35 0 63 3 63 6 0 13 -435 59 -559 59 -41 0 -89 5 -107 12 -63 23
-524 -17 -769 -67 -212 -43 -512 -127 -665 -187 -585 -228 -1004 -448 -1520
-796 -228 -154 -479 -344 -662 -499 -25 -22 81 300 237 717 86 230 139 362
242 600 75 172 78 176 162 265 156 164 335 445 508 795 82 166 128 245 200
344 51 71 128 184 171 250 111 174 258 304 465 412 110 57 227 98 227 80 0
-10 34 -15 130 -19 699 -34 1340 -189 1663 -404 39 -26 123 -101 186 -166 188
-193 384 -331 681 -481 354 -179 588 -257 776 -259 81 0 98 3 149 27 31 16 59
34 62 42 3 8 12 14 20 14 8 0 81 -31 161 -70 l147 -70 45 16 c34 12 61 14 110
8 105 -11 206 -5 340 22 248 50 633 198 718 276 26 23 49 47 51 53 12 31 118
149 173 190 148 113 377 184 596 185 37 0 62 4 62 11 0 15 -104 116 -175 170
-68 52 -163 108 -215 128 -70 27 -105 45 -118 61 -9 10 -11 10 -6 1 6 -11 2
-13 -17 -7 -152 42 -353 44 -521 7 -109 -25 -354 -120 -416 -163 -26 -17 -81
-60 -122 -94 -42 -34 -126 -91 -187 -127 -62 -36 -133 -83 -160 -105 -49 -40
-66 -47 -161 -62 -46 -8 -63 -18 -125 -74 l-72 -64 -65 81 c-35 45 -81 107
-102 138 -51 77 -172 189 -273 255 -170 111 -468 237 -684 289 -69 17 -82 25
-165 96 -201 173 -428 259 -690 259 -101 1 -101 1 -137 34 -20 19 -39 46 -43
60 -6 25 -3 29 71 63 75 34 333 123 401 138 18 4 31 9 29 12 -5 4 -78 -12
-142 -32 -61 -18 86 42 172 70 163 55 296 77 483 82 148 4 178 2 290 -21 69
-14 202 -49 295 -77 l170 -53 210 0 c178 0 241 4 415 29 268 37 492 40 615 6
44 -12 108 -35 143 -51 85 -40 300 -187 457 -314 72 -58 139 -109 150 -114 11
-5 76 -33 145 -62 69 -29 131 -57 138 -63 10 -8 25 2 61 37 l47 47 26 -21 c15
-11 29 -20 32 -20 4 0 4 21 1 48 l-6 47 97 105 c189 205 386 443 451 545 29
46 43 44 43 -5z m-14993 -55 c1 -5 -1 -16 -6 -24 -8 -12 -12 -12 -25 -2 -24
20 -20 43 6 39 12 -2 23 -7 25 -13z m-392 -20 c0 -30 -39 -27 -43 3 -3 20 0
23 20 20 15 -2 23 -10 23 -23z m345 -45 c0 -35 1 -34 -34 -16 -25 13 -26 15
-11 30 26 26 45 20 45 -14z m-250 -5 c0 -3 -9 -14 -20 -25 -18 -18 -22 -19
-35 -6 -24 24 -17 36 20 36 19 0 35 -2 35 -5z m318 -7 c12 -15 12 -88 0 -88
-5 0 -11 -7 -14 -14 -5 -14 0 -23 34 -61 6 -7 12 -30 12 -50 0 -32 3 -36 20
-30 18 6 20 2 20 -45 0 -36 4 -52 15 -56 10 -4 15 -20 15 -51 0 -47 18 -72 51
-73 20 0 32 -26 24 -51 -4 -11 -2 -19 4 -19 6 0 11 -18 11 -40 0 -45 16 -53
40 -20 8 11 20 20 27 20 7 0 13 -9 13 -20 0 -13 7 -20 20 -20 11 0 20 -4 20
-10 0 -5 -7 -10 -16 -10 -18 0 -43 -27 -44 -47 0 -7 11 -13 23 -13 21 0 27
-10 48 -70 25 -75 39 -89 39 -40 0 28 3 30 35 30 28 0 35 -4 35 -20 0 -11 -7
-20 -15 -20 -8 0 -15 -9 -15 -20 0 -11 -4 -20 -10 -20 -5 0 -10 -11 -10 -25 0
-14 5 -25 11 -25 20 0 39 -29 39 -59 0 -21 -5 -31 -15 -31 -8 0 -15 9 -15 20
0 11 -4 20 -10 20 -5 0 -10 -9 -10 -20 0 -11 5 -20 10 -20 6 0 10 -9 10 -20 0
-11 7 -20 15 -20 8 0 15 7 15 16 0 18 23 44 39 44 6 0 10 -10 8 -22 -2 -25
-20 -48 -36 -48 -6 0 -11 -3 -11 -6 0 -10 28 -34 39 -34 6 0 11 -4 11 -10 0
-5 -11 -10 -25 -10 -16 0 -25 -6 -25 -15 0 -8 4 -15 9 -15 11 0 27 -48 34
-102 4 -29 2 -38 -9 -38 -19 0 -18 -16 3 -51 23 -38 33 -37 33 6 0 40 8 44 33
15 21 -24 33 -25 41 -3 9 22 25 5 28 -30 1 -15 5 -27 8 -27 3 0 20 -13 38 -29
20 -19 30 -35 26 -45 -4 -11 -1 -16 10 -16 9 0 16 -4 16 -10 0 -5 5 -10 10
-10 17 0 55 -43 42 -48 -14 -4 -16 -42 -2 -42 6 0 10 -9 10 -20 0 -11 -7 -20
-15 -20 -9 0 -15 9 -15 25 0 14 -5 25 -10 25 -15 0 0 -121 17 -138 17 -18 17
-32 -2 -32 -8 0 -15 5 -15 11 0 6 -6 9 -12 6 -17 -5 -11 -38 9 -52 18 -13 30
-95 13 -95 -5 0 -10 5 -10 11 0 7 -11 9 -31 5 -17 -3 -40 -1 -51 5 -23 12 -23
12 -32 -18 -6 -20 -4 -23 17 -23 13 0 26 -3 30 -6 11 -12 -5 -34 -26 -34 -16
0 -18 -3 -9 -12 17 -17 62 6 62 32 0 13 7 20 20 20 14 0 20 -7 20 -24 0 -13 5
-26 11 -28 16 -5 1 -48 -17 -48 -8 0 -14 5 -14 10 0 6 -7 10 -15 10 -8 0 -15
-2 -15 -4 0 -2 -3 -12 -7 -22 -5 -13 -3 -16 9 -11 12 4 20 -4 29 -26 7 -18 17
-35 23 -39 6 -4 7 -10 3 -14 -4 -4 -15 2 -24 13 -14 15 -26 19 -50 16 -39 -6
-44 -23 -8 -23 20 0 25 -5 25 -25 0 -14 -5 -25 -11 -25 -5 0 -7 5 -4 10 11 18
-25 23 -44 6 -10 -9 -27 -16 -39 -16 -12 0 -22 -4 -22 -10 0 -5 8 -10 17 -10
9 0 25 -7 35 -17 19 -17 25 -53 8 -53 -5 0 -10 5 -10 10 0 6 -16 10 -35 10
-24 0 -35 -5 -35 -14 0 -23 -22 -31 -32 -12 -9 17 -52 14 -73 -5 -15 -14 -45
-10 -45 6 0 8 -5 15 -11 15 -11 0 -39 24 -39 34 0 3 8 6 19 6 13 0 20 10 25
32 7 37 2 45 -19 28 -13 -11 -19 -10 -33 4 -15 15 -15 18 -2 26 13 9 13 11 0
20 -23 15 -50 12 -50 -5 0 -8 -4 -15 -10 -15 -5 0 -10 5 -10 10 0 6 -7 10 -15
10 -8 0 -15 -9 -15 -20 0 -11 -4 -20 -9 -20 -4 0 -11 28 -15 62 -6 61 -15 84
-23 61 -7 -20 -23 -15 -23 7 0 11 5 20 10 20 6 0 10 7 10 15 0 8 -9 15 -19 15
-16 0 -20 -8 -23 -37 -3 -33 -7 -38 -30 -41 -20 -2 -28 1 -28 12 0 9 4 16 8
16 4 0 16 23 26 50 18 50 19 50 52 44 27 -5 34 -3 34 10 0 9 -8 16 -19 16 -11
0 -26 7 -35 15 -16 17 -66 21 -66 5 0 -5 -9 -10 -19 -10 -11 0 -23 -4 -26 -10
-10 -17 -25 -11 -25 10 0 11 -4 20 -9 20 -5 0 -11 12 -14 26 -4 22 -2 25 17
20 11 -3 24 -6 29 -6 4 0 7 -9 7 -20 0 -13 7 -20 20 -20 11 0 20 7 20 15 0 8
7 15 15 15 18 0 18 2 4 34 -12 26 -35 36 -86 36 -26 0 -31 -3 -26 -16 5 -14 2
-16 -22 -10 -43 11 -58 32 -51 71 7 36 -8 55 -27 36 -19 -19 -27 -12 -20 20 6
30 6 30 -31 24 -37 -8 -50 6 -21 23 11 6 18 31 22 80 3 40 9 72 13 72 4 0 10
16 12 35 4 32 2 35 -22 35 -14 0 -32 6 -39 13 -11 9 -14 9 -18 0 -3 -9 -14
-11 -31 -7 -36 9 -37 10 -17 30 11 11 14 25 10 41 -6 27 21 45 36 22 8 -12 11
-12 19 1 7 11 5 18 -5 26 -8 6 -20 25 -26 43 -7 20 -18 31 -30 31 -10 0 -19
-4 -19 -10 0 -5 -7 -10 -15 -10 -8 0 -15 5 -15 10 0 6 7 10 15 10 8 0 15 7 15
15 0 8 -5 15 -11 15 -14 0 -39 25 -39 39 0 17 40 13 46 -4 4 -8 15 -15 25 -15
14 0 19 7 19 28 0 15 5 33 11 39 8 8 8 17 0 31 -21 40 -7 57 23 27 8 -8 19
-15 25 -15 6 0 11 -4 11 -10 0 -5 7 -10 15 -10 8 0 15 9 15 20 0 11 5 20 10
20 6 0 10 7 10 15 0 8 -4 15 -10 15 -5 0 -10 16 -10 35 0 19 -4 35 -10 35 -5
0 -10 23 -10 50 0 49 -1 50 -30 50 -25 0 -30 -4 -30 -25 0 -14 5 -25 10 -25 6
0 10 -22 10 -50 0 -37 -4 -50 -14 -50 -8 0 -18 9 -21 20 -3 11 -17 23 -31 26
-17 4 -24 13 -24 30 0 13 -4 24 -10 24 -5 0 -10 5 -10 10 0 6 7 10 15 10 9 0
20 12 25 26 14 35 13 44 -4 44 -11 0 -13 9 -9 35 5 31 3 35 -15 35 -23 0 -42
22 -24 28 21 7 14 73 -9 93 -16 14 -19 22 -11 32 15 17 11 57 -5 57 -15 0 -18
36 -3 45 6 3 10 20 10 37 0 27 3 29 23 24 25 -6 56 21 49 42 -8 26 24 10 47
-23 25 -37 67 -48 77 -20 4 8 12 15 20 15 8 0 14 -7 14 -15 0 -8 -7 -15 -15
-15 -8 0 -15 -5 -15 -11 0 -7 10 -9 24 -5 19 5 26 1 31 -14 12 -37 25 -21 25
30 0 36 -4 52 -15 56 -34 13 -1 94 39 94 18 0 23 46 6 52 -15 5 -14 78 1 121
15 40 21 44 37 25z m-408 -88 c0 -6 -7 -10 -15 -10 -8 0 -15 2 -15 4 0 2 -3
12 -7 21 -5 15 -3 16 15 6 12 -7 22 -16 22 -21z m580 0 c0 -5 -4 -10 -10 -10
-5 0 -10 5 -10 10 0 6 5 10 10 10 6 0 10 -4 10 -10z m-240 -45 c0 -8 -7 -15
-15 -15 -8 0 -15 7 -15 15 0 8 7 15 15 15 8 0 15 -7 15 -15z m-250 -105 c0
-20 -28 -60 -42 -60 -5 0 -8 7 -8 15 0 8 5 15 10 15 6 0 10 11 10 25 0 16 6
25 15 25 8 0 15 -9 15 -20z m-473 -72 c-3 -8 -6 -5 -6 6 -1 11 2 17 5 13 3 -3
4 -12 1 -19z m-10 -50 c-3 -7 -5 -2 -5 12 0 14 2 19 5 13 2 -7 2 -19 0 -25z
m-20 -80 c-3 -8 -6 -5 -6 6 -1 11 2 17 5 13 3 -3 4 -12 1 -19z m433 8 c0 -8
-4 -18 -10 -21 -5 -3 -10 3 -10 14 0 12 5 21 10 21 6 0 10 -6 10 -14z m540 4
c0 -5 -7 -10 -15 -10 -8 0 -15 5 -15 10 0 6 7 10 15 10 8 0 15 -4 15 -10z
m-993 -102 c-3 -8 -6 -5 -6 6 -1 11 2 17 5 13 3 -3 4 -12 1 -19z m-10 -60 c-3
-7 -5 -2 -5 12 0 14 2 19 5 13 2 -7 2 -19 0 -25z m-20 -110 c-3 -7 -5 -2 -5
12 0 14 2 19 5 13 2 -7 2 -19 0 -25z m703 -248 c0 -5 -9 -10 -20 -10 -11 0
-20 5 -20 10 0 6 9 10 20 10 11 0 20 -4 20 -10z m700 0 c9 -5 15 -25 15 -49 0
-40 -14 -67 -22 -43 -3 6 -8 10 -12 8 -4 -3 -8 18 -9 45 -2 50 2 56 28 39z
m-6 -246 c4 -10 1 -14 -6 -12 -15 5 -23 28 -10 28 5 0 13 -7 16 -16z m126 -29
c0 -8 -4 -15 -10 -15 -5 0 -10 7 -10 15 0 8 5 15 10 15 6 0 10 -7 10 -15z
m-110 -10 c0 -8 -4 -15 -10 -15 -5 0 -10 7 -10 15 0 8 5 15 10 15 6 0 10 -7
10 -15z m-740 -160 c0 -8 -7 -15 -15 -15 -8 0 -15 7 -15 15 0 8 7 15 15 15 8
0 15 -7 15 -15z m920 0 c0 -8 -4 -15 -10 -15 -5 0 -10 7 -10 15 0 8 5 15 10
15 6 0 10 -7 10 -15z m-1000 -5 c0 -5 -5 -10 -11 -10 -5 0 -7 5 -4 10 3 6 8
10 11 10 2 0 4 -4 4 -10z m100 -255 c0 -9 7 -18 15 -21 25 -10 17 -34 -10 -34
-14 0 -25 5 -25 10 0 6 -7 10 -15 10 -8 0 -15 -4 -15 -10 0 -16 -17 -11 -24 6
-13 33 3 54 40 54 24 0 34 -5 34 -15z m1000 -265 c0 -11 -7 -20 -15 -20 -8 0
-15 9 -15 20 0 11 7 20 15 20 8 0 15 -9 15 -20z m-650 -149 c0 -17 -18 -31
-41 -31 -5 0 -3 11 3 25 13 29 38 33 38 6z m190 -196 c0 -8 -4 -15 -9 -15 -5
0 -11 7 -15 15 -3 9 0 15 9 15 8 0 15 -7 15 -15z m9851 -412 c13 -16 12 -17
-3 -4 -17 13 -22 21 -14 21 2 0 10 -8 17 -17z m6366 -2939 c-3 -3 -12 -4 -19
-1 -8 3 -5 6 6 6 11 1 17 -2 13 -5z m165 -129 c11 -21 8 -18 -32 30 -24 29
-24 29 -2 10 13 -11 28 -29 34 -40z m6855 -147 c-3 -8 -6 -5 -6 6 -1 11 2 17
5 13 3 -3 4 -12 1 -19z m-10 -40 c-3 -8 -6 -5 -6 6 -1 11 2 17 5 13 3 -3 4
-12 1 -19z m-11 -48 c-3 -19 -2 -29 4 -25 8 5 -42 -110 -52 -121 -3 -2 7 37
21 86 24 88 40 121 27 60z m27 5 c-3 -9 -8 -14 -10 -11 -3 3 -2 9 2 15 9 16
15 13 8 -4z m-6686 -332 c-3 -10 -5 -2 -5 17 0 19 2 27 5 18 2 -10 2 -26 0
-35z m-700 -18 c195 -41 373 -100 373 -123 0 -13 -98 -100 -195 -173 -377
-284 -882 -501 -1445 -620 -74 -16 -115 -27 -90 -24 74 7 246 15 235 11 -5 -3
-98 -12 -205 -20 -107 -9 -265 -21 -350 -28 -232 -19 -962 -15 -1152 6 -304
34 -673 110 -1058 217 l-105 29 -90 92 c-50 51 -128 124 -173 162 -45 37 -80
71 -78 75 6 8 -199 171 -301 239 -46 30 -82 56 -81 57 2 1 131 -24 288 -55
694 -140 1076 -187 1415 -175 336 11 558 36 736 80 53 13 152 31 220 39 68 9
221 27 339 41 118 14 411 55 650 91 792 118 859 123 1067 79z m-2299 -242
c-10 -2 -26 -2 -35 0 -10 3 -2 5 17 5 19 0 27 -2 18 -5z m3011 -357 c140 -245
281 -760 405 -1486 50 -286 116 -738 115 -780 0 -19 -20 53 -44 160 -55 251
-111 463 -191 725 -76 250 -148 472 -156 480 -3 3 1 -28 8 -70 52 -299 44
-1006 -21 -1760 -20 -233 -64 -637 -69 -642 -7 -8 -15 93 -21 267 -3 91 -17
433 -30 760 -14 327 -25 613 -26 635 -2 63 -7 28 -34 -245 -28 -276 -74 -683
-106 -930 -37 -291 -70 -525 -75 -529 -2 -2 -4 106 -4 240 0 356 -25 644 -91
1049 -29 180 -99 530 -119 599 -5 19 -8 36 -6 38 2 2 36 -37 76 -87 40 -50 74
-89 76 -87 2 2 -5 38 -16 81 -48 187 -69 477 -51 711 13 175 31 317 41 328 6
7 37 -69 158 -391 21 -56 42 -105 45 -109 4 -3 7 23 7 58 0 114 49 853 66
1007 4 28 9 52 13 52 4 0 27 -33 50 -74z m-1582 -302 c-3 -3 -12 -4 -19 -1 -8
3 -5 6 6 6 11 1 17 -2 13 -5z m-89 -11 c-10 -2 -28 -2 -40 0 -13 2 -5 4 17 4
22 1 32 -1 23 -4z m-85 -10 c-13 -2 -33 -2 -45 0 -13 2 -3 4 22 4 25 0 35 -2
23 -4z m2984 -1865 c-3 -8 -6 -5 -6 6 -1 11 2 17 5 13 3 -3 4 -12 1 -19z m-40
-210 c-3 -8 -6 -5 -6 6 -1 11 2 17 5 13 3 -3 4 -12 1 -19z m-10 -50 c-3 -8 -6
-5 -6 6 -1 11 2 17 5 13 3 -3 4 -12 1 -19z m-10 -60 c-3 -7 -5 -2 -5 12 0 14
2 19 5 13 2 -7 2 -19 0 -25z m-10 -60 c-3 -8 -6 -5 -6 6 -1 11 2 17 5 13 3 -3
4 -12 1 -19z m-10 -70 c-3 -8 -6 -5 -6 6 -1 11 2 17 5 13 3 -3 4 -12 1 -19z
m-10 -80 c-3 -7 -5 -2 -5 12 0 14 2 19 5 13 2 -7 2 -19 0 -25z m-10 -80 c-3
-8 -6 -5 -6 6 -1 11 2 17 5 13 3 -3 4 -12 1 -19z m-10 -100 c-3 -7 -5 -2 -5
12 0 14 2 19 5 13 2 -7 2 -19 0 -25z m-20 -255 c-3 -10 -5 -2 -5 17 0 19 2 27
5 18 2 -10 2 -26 0 -35z m-2462 -5408 c-32 -97 -45 -103 -45 -22 0 61 2 69 23
77 43 17 45 12 22 -55z"/>
<path d="M18495 32450 c11 -5 27 -9 35 -9 9 0 8 4 -5 9 -11 5 -27 9 -35 9 -9
0 -8 -4 5 -9z"/>
<path d="M18558 32433 c7 -3 16 -2 19 1 4 3 -2 6 -13 5 -11 0 -14 -3 -6 -6z"/>
<path d="M18640 32410 c8 -5 24 -10 34 -10 26 0 18 6 -19 14 -22 5 -26 4 -15
-4z"/>
<path d="M11760 31840 c-8 -5 -10 -10 -5 -10 6 0 17 5 25 10 8 5 11 10 5 10
-5 0 -17 -5 -25 -10z"/>
<path d="M17241 31784 c0 -11 3 -14 6 -6 3 7 2 16 -1 19 -3 4 -6 -2 -5 -13z"/>
<path d="M23055 30710 c9 -16 18 -30 21 -30 2 0 -2 14 -11 30 -9 17 -18 30
-21 30 -2 0 2 -13 11 -30z"/>
<path d="M28181 28793 c116 -174 171 -252 144 -203 -21 37 -266 400 -270 400
-3 0 54 -89 126 -197z"/>
<path d="M24375 28720 c9 -16 18 -30 21 -30 2 0 -2 14 -11 30 -9 17 -18 30
-21 30 -2 0 2 -13 11 -30z"/>
<path d="M28340 28555 c0 -5 10 -21 21 -35 13 -17 17 -18 10 -5 -17 33 -31 51
-31 40z"/>
<path d="M28130 28519 c0 -11 128 -209 135 -209 7 0 -38 95 -46 98 -5 2 -9 9
-9 16 0 7 -13 25 -30 41 -16 16 -30 37 -30 47 0 10 -4 18 -10 18 -5 0 -10 -5
-10 -11z"/>
<path d="M28275 28290 c3 -5 8 -10 11 -10 2 0 4 5 4 10 0 6 -5 10 -11 10 -5 0
-7 -4 -4 -10z"/>
<path d="M28561 28200 c9 -14 60 -99 114 -190 89 -150 137 -223 105 -160 -32
62 -204 347 -218 360 -14 14 -14 13 -1 -10z"/>
<path d="M7531 28124 c0 -11 3 -14 6 -6 3 7 2 16 -1 19 -3 4 -6 -2 -5 -13z"/>
<path d="M7491 27974 c0 -11 3 -14 6 -6 3 7 2 16 -1 19 -3 4 -6 -2 -5 -13z"/>
<path d="M7471 27904 c0 -11 3 -14 6 -6 3 7 2 16 -1 19 -3 4 -6 -2 -5 -13z"/>
<path d="M7456 27854 c-4 -14 -5 -28 -3 -31 3 -2 8 8 11 23 4 14 5 28 3 31 -3
2 -8 -8 -11 -23z"/>
<path d="M7441 27794 c0 -11 3 -14 6 -6 3 7 2 16 -1 19 -3 4 -6 -2 -5 -13z"/>
<path d="M7431 27754 c0 -11 3 -14 6 -6 3 7 2 16 -1 19 -3 4 -6 -2 -5 -13z"/>
<path d="M7416 27704 c-4 -14 -5 -28 -3 -31 3 -2 8 8 11 23 4 14 5 28 3 31 -3
2 -8 -8 -11 -23z"/>
<path d="M7401 27644 c0 -11 3 -14 6 -6 3 7 2 16 -1 19 -3 4 -6 -2 -5 -13z"/>
<path d="M7391 27604 c0 -11 3 -14 6 -6 3 7 2 16 -1 19 -3 4 -6 -2 -5 -13z"/>
<path d="M29045 27370 c9 -16 18 -30 21 -30 2 0 -2 14 -11 30 -9 17 -18 30
-21 30 -2 0 2 -13 11 -30z"/>
<path d="M29103 27268 c19 -35 60 -111 92 -170 31 -60 61 -111 67 -114 5 -3
-7 25 -28 62 -97 180 -156 284 -161 284 -2 0 11 -28 30 -62z"/>
<path d="M7026 26255 c-9 -26 -7 -32 5 -12 6 10 9 21 6 23 -2 3 -7 -2 -11 -11z"/>
<path d="M6981 26129 c-6 -18 -9 -34 -7 -36 2 -2 9 10 15 28 6 18 9 34 7 36
-2 2 -9 -10 -15 -28z"/>
<path d="M6946 26035 c-9 -26 -7 -32 5 -12 6 10 9 21 6 23 -2 3 -7 -2 -11 -11z"/>
<path d="M6916 25955 c-3 -9 -6 -22 -5 -28 0 -7 5 -1 10 12 5 13 8 26 5 28 -2
2 -6 -3 -10 -12z"/>
<path d="M7390 25823 c-18 -54 -35 -105 -38 -113 -3 -8 -2 -12 2 -9 10 9 77
211 72 216 -2 2 -19 -40 -36 -94z"/>
<path d="M31411 22824 c0 -11 3 -14 6 -6 3 7 2 16 -1 19 -3 4 -6 -2 -5 -13z"/>
<path d="M10220 29130 c-8 -5 -11 -12 -7 -16 4 -4 13 -2 19 4 15 15 7 24 -12
12z"/>
<path d="M18858 22263 c7 -3 16 -2 19 1 4 3 -2 6 -13 5 -11 0 -14 -3 -6 -6z"/>
<path d="M22140 21742 c0 -4 10 -13 23 -21 22 -14 22 -14 3 8 -20 22 -26 25
-26 13z"/>
<path d="M21897 21613 c18 -2 50 -2 70 0 21 2 7 4 -32 4 -38 0 -55 -2 -38 -4z"/>
<path d="M21798 21603 c6 -2 18 -2 25 0 6 3 1 5 -13 5 -14 0 -19 -2 -12 -5z"/>
<path d="M22043 21603 c9 -2 23 -2 30 0 6 3 -1 5 -18 5 -16 0 -22 -2 -12 -5z"/>
<path d="M21758 21593 c7 -3 16 -2 19 1 4 3 -2 6 -13 5 -11 0 -14 -3 -6 -6z"/>
<path d="M22098 21593 c7 -3 16 -2 19 1 4 3 -2 6 -13 5 -11 0 -14 -3 -6 -6z"/>
<path d="M21718 21583 c7 -3 16 -2 19 1 4 3 -2 6 -13 5 -11 0 -14 -3 -6 -6z"/>
<path d="M22138 21583 c7 -3 16 -2 19 1 4 3 -2 6 -13 5 -11 0 -14 -3 -6 -6z"/>
<path d="M22200 21560 c19 -11 40 -19 45 -19 6 0 -6 8 -25 19 -19 11 -39 19
-45 19 -5 0 6 -8 25 -19z"/>
<path d="M22743 21013 c9 -2 25 -2 35 0 9 3 1 5 -18 5 -19 0 -27 -2 -17 -5z"/>
<path d="M22943 21013 c9 -2 25 -2 35 0 9 3 1 5 -18 5 -19 0 -27 -2 -17 -5z"/>
<path d="M22375 20940 c-13 -6 -15 -9 -5 -9 8 0 22 4 30 9 18 12 2 12 -25 0z"/>
<path d="M23270 20940 c8 -5 20 -10 25 -10 6 0 3 5 -5 10 -8 5 -19 10 -25 10
-5 0 -3 -5 5 -10z"/>
<path d="M22240 20890 c-9 -6 -10 -10 -3 -10 6 0 15 5 18 10 8 12 4 12 -15 0z"/>
<path d="M22190 20870 c-8 -5 -10 -10 -5 -10 6 0 17 5 25 10 8 5 11 10 5 10
-5 0 -17 -5 -25 -10z"/>
<path d="M22140 20850 c-8 -5 -10 -10 -5 -10 6 0 17 5 25 10 8 5 11 10 5 10
-5 0 -17 -5 -25 -10z"/>
<path d="M22085 20830 c-16 -7 -17 -9 -3 -9 9 -1 20 4 23 9 7 11 7 11 -20 0z"/>
<path d="M22015 20800 c-16 -7 -17 -9 -3 -9 9 -1 20 4 23 9 7 11 7 11 -20 0z"/>
<path d="M23860 20455 c13 -14 26 -25 28 -25 3 0 -5 11 -18 25 -13 14 -26 25
-28 25 -3 0 5 -11 18 -25z"/>
<path d="M23988 18193 c7 -3 16 -2 19 1 4 3 -2 6 -13 5 -11 0 -14 -3 -6 -6z"/>
<path d="M23813 18173 c9 -2 25 -2 35 0 9 3 1 5 -18 5 -19 0 -27 -2 -17 -5z"/>
<path d="M23633 18163 c20 -2 54 -2 75 0 20 2 3 4 -38 4 -41 0 -58 -2 -37 -4z"/>
<path d="M7910 21950 c0 -5 5 -10 10 -10 6 0 10 5 10 10 0 6 -4 10 -10 10 -5
0 -10 -4 -10 -10z"/>
<path d="M7847 21919 c-3 -13 1 -28 9 -36 17 -18 19 -17 28 18 4 19 1 29 -10
33 -22 8 -21 9 -27 -15z"/>
<path d="M7960 21905 c0 -8 5 -15 10 -15 6 0 10 -7 10 -15 0 -8 7 -15 15 -15
10 0 15 10 15 30 0 25 -4 30 -25 30 -16 0 -25 -6 -25 -15z"/>
<path d="M8018 21828 c-3 -7 -3 -32 0 -55 3 -34 8 -43 23 -43 12 0 19 7 19 20
0 11 -4 20 -10 20 -5 0 -10 16 -10 35 0 34 -13 48 -22 23z"/>
<path d="M8078 21823 c-31 -16 -35 -28 -13 -37 17 -6 21 -52 4 -58 -7 -2 -7
-12 1 -33 6 -17 12 -46 14 -65 1 -26 7 -36 21 -39 34 -6 47 -23 41 -53 -3 -15
-1 -28 4 -28 6 0 10 -9 10 -19 0 -17 18 -31 41 -31 5 0 9 9 9 20 0 11 7 20 15
20 9 0 15 9 15 25 0 14 -4 25 -10 25 -5 0 -10 9 -10 20 0 13 7 20 20 20 31 0
27 46 -4 54 -14 3 -28 15 -31 26 -7 24 -37 26 -55 5 -17 -20 -37 -19 -45 4 -7
24 4 51 21 51 8 0 14 9 14 20 0 11 5 20 10 20 6 0 10 7 10 15 0 8 -4 15 -10
15 -5 0 -10 9 -10 20 0 24 -22 25 -62 3z m32 -13 c0 -5 -5 -10 -11 -10 -5 0
-7 5 -4 10 3 6 8 10 11 10 2 0 4 -4 4 -10z"/>
<path d="M7892 21808 c6 -18 28 -21 28 -4 0 9 -7 16 -16 16 -9 0 -14 -5 -12
-12z"/>
<path d="M7860 21725 c0 -8 5 -15 10 -15 6 0 10 7 10 15 0 8 -4 15 -10 15 -5
0 -10 -7 -10 -15z"/>
<path d="M8280 21676 c0 -9 7 -16 16 -16 9 0 14 5 12 12 -6 18 -28 21 -28 4z"/>
<path d="M7930 21630 c0 -11 -4 -20 -10 -20 -5 0 -10 -11 -10 -25 0 -14 5 -25
10 -25 6 0 10 11 10 25 0 14 5 25 10 25 6 0 10 9 10 20 0 11 -4 20 -10 20 -5
0 -10 -9 -10 -20z"/>
<path d="M8310 21626 c0 -9 7 -16 16 -16 17 0 14 22 -4 28 -7 2 -12 -3 -12
-12z"/>
<path d="M8340 21575 c0 -8 5 -15 10 -15 6 0 10 7 10 15 0 8 -4 15 -10 15 -5
0 -10 -7 -10 -15z"/>
<path d="M8380 21575 c0 -8 7 -15 15 -15 8 0 15 7 15 15 0 8 -7 15 -15 15 -8
0 -15 -7 -15 -15z"/>
<path d="M8410 21505 c0 -16 6 -25 16 -25 11 0 14 5 10 16 -3 9 -6 20 -6 25 0
5 -4 9 -10 9 -5 0 -10 -11 -10 -25z"/>
<path d="M8340 21500 c0 -5 5 -10 10 -10 6 0 10 5 10 10 0 6 -4 10 -10 10 -5
0 -10 -4 -10 -10z"/>
<path d="M8210 21412 c0 -15 44 -75 58 -80 6 -2 12 3 12 12 0 9 -4 16 -9 16
-5 0 -13 9 -16 20 -7 21 -45 48 -45 32z"/>
<path d="M8440 21290 c0 -5 7 -10 15 -10 8 0 15 5 15 10 0 6 -7 10 -15 10 -8
0 -15 -4 -15 -10z"/>
<path d="M8010 21260 c0 -11 7 -20 15 -20 20 0 21 -76 1 -96 -17 -16 -36 -19
-36 -4 0 6 -7 10 -15 10 -8 0 -15 5 -15 10 0 6 -7 10 -15 10 -21 0 -19 -26 5
-50 21 -21 60 -27 60 -10 0 6 9 10 21 10 37 0 59 19 59 50 0 20 -5 30 -15 30
-9 0 -15 9 -15 25 0 14 -4 25 -10 25 -5 0 -10 7 -10 15 0 8 -7 15 -15 15 -8 0
-15 -9 -15 -20z"/>
<path d="M8490 21264 c0 -10 -6 -14 -15 -10 -19 7 -19 -4 1 -32 25 -36 44 -28
44 18 0 29 -4 40 -15 40 -8 0 -15 -7 -15 -16z"/>
<path d="M8520 21020 c0 -5 5 -10 10 -10 6 0 10 5 10 10 0 6 -4 10 -10 10 -5
0 -10 -4 -10 -10z"/>
<path d="M8646 20915 c-3 -8 -1 -15 4 -15 6 0 10 -9 10 -21 0 -21 22 -49 38
-49 10 0 22 23 22 40 0 12 -48 60 -59 60 -5 0 -11 -7 -15 -15z"/>
<path d="M8780 20815 c0 -8 7 -15 15 -15 8 0 15 7 15 15 0 8 -7 15 -15 15 -8
0 -15 -7 -15 -15z"/>
<path d="M8700 20797 c0 -15 29 -57 30 -42 0 6 -3 20 -6 33 -7 24 -24 31 -24
9z"/>
<path d="M8280 20783 c0 -21 17 -50 24 -42 3 3 7 16 8 29 2 16 -3 25 -14 28
-12 2 -18 -3 -18 -15z"/>
<path d="M8785 20743 c4 -10 10 -26 12 -35 6 -19 33 -25 33 -7 0 18 -19 46
-36 53 -12 5 -15 2 -9 -11z"/>
<path d="M8741 20714 c0 -11 3 -14 6 -6 3 7 2 16 -1 19 -3 4 -6 -2 -5 -13z"/>
<path d="M8320 20685 c0 -8 7 -15 15 -15 8 0 15 7 15 15 0 8 -7 15 -15 15 -8
0 -15 -7 -15 -15z"/>
<path d="M8210 20675 c0 -8 5 -15 10 -15 6 0 10 7 10 15 0 8 -4 15 -10 15 -5
0 -10 -7 -10 -15z"/>
<path d="M8490 20360 c0 -5 5 -10 10 -10 6 0 10 5 10 10 0 6 -4 10 -10 10 -5
0 -10 -4 -10 -10z"/>
<path d="M8413 20315 c-1 -37 12 -42 30 -13 12 19 3 48 -16 48 -8 0 -13 -13
-14 -35z"/>
<path d="M8502 20305 c8 -18 19 -25 40 -25 18 0 28 5 28 15 0 9 -9 15 -24 15
-14 0 -28 5 -31 10 -13 21 -24 9 -13 -15z"/>
<path d="M8715 20290 c-3 -5 -1 -10 4 -10 6 0 11 5 11 10 0 6 -2 10 -4 10 -3
0 -8 -4 -11 -10z"/>
<path d="M20968 15163 c7 -3 16 -2 19 1 4 3 -2 6 -13 5 -11 0 -14 -3 -6 -6z"/>
<path d="M21008 15153 c7 -3 16 -2 19 1 4 3 -2 6 -13 5 -11 0 -14 -3 -6 -6z"/>
<path d="M21048 15143 c7 -3 16 -2 19 1 4 3 -2 6 -13 5 -11 0 -14 -3 -6 -6z"/>
<path d="M11854 34844 c-18 -14 -18 -15 4 -4 12 6 22 13 22 15 0 8 -5 6 -26
-11z"/>
<path d="M11727 34765 c-37 -25 -67 -48 -67 -50 0 -3 32 16 70 41 61 41 77 54
67 54 -1 0 -33 -20 -70 -45z"/>
<path d="M11569 34653 c-13 -16 -12 -17 4 -4 9 7 17 15 17 17 0 8 -8 3 -21
-13z"/>
<path d="M11344 34488 l-19 -23 23 19 c21 18 27 26 19 26 -2 0 -12 -10 -23
-22z"/>
<path d="M10857 34084 c-27 -26 -47 -48 -45 -49 2 -2 26 19 55 46 28 27 48 49
45 49 -4 0 -29 -21 -55 -46z"/>
<path d="M25200 33286 l145 -147 124 -39 c69 -22 126 -38 128 -37 2 3 -497
346 -527 362 -8 4 50 -58 130 -139z"/>
<path d="M7391 30513 c-1 -29 4 -53 9 -53 12 0 12 57 0 85 -6 15 -9 6 -9 -32z"/>
<path d="M6605 28950 c-22 -10 -36 -19 -32 -19 12 -1 77 27 77 33 0 7 3 8 -45
-14z"/>
<path d="M25850 6062 c0 -5 10 -17 22 -28 l21 -19 -18 28 c-18 28 -25 33 -25
19z"/>
<path d="M29536 5478 c-21 -139 -39 -259 -42 -265 -2 -9 -18 -3 -48 17 -101
68 -282 135 -451 166 -70 13 -126 15 -255 11 -198 -7 -298 -28 -500 -110 -249
-100 -437 -144 -657 -154 -79 -3 -143 -9 -143 -12 0 -4 37 -40 83 -80 175
-155 610 -587 723 -717 66 -76 158 -181 205 -234 157 -177 391 -476 533 -682
37 -54 72 -98 77 -98 14 0 137 87 179 127 19 18 38 33 42 33 4 0 16 6 25 14
42 34 114 86 119 86 3 0 12 7 21 15 8 9 94 75 190 148 259 196 322 244 358
275 18 15 58 47 90 72 55 44 77 61 214 173 36 28 88 76 117 105 30 28 58 52
64 52 11 0 130 115 130 126 0 11 -287 359 -474 574 -194 223 -540 602 -556
608 -3 1 -23 -111 -44 -250z"/>
<path d="M31679 5606 c-42 -18 -89 -42 -105 -54 -86 -62 -153 -163 -170 -257
-7 -38 -6 -39 12 -25 23 19 334 330 353 353 21 26 -2 22 -90 -17z"/>
<path d="M22475 5530 c-3 -6 1 -7 9 -4 18 7 21 14 7 14 -6 0 -13 -4 -16 -10z"/>
<path d="M21920 5188 c-14 -11 -36 -29 -49 -39 -13 -11 -22 -21 -20 -23 2 -2
28 16 57 40 29 24 49 44 45 44 -4 -1 -19 -10 -33 -22z"/>
<path d="M27230 5193 c0 -6 8 -17 18 -24 16 -13 16 -13 2 6 -8 11 -16 22 -17
24 -2 2 -3 0 -3 -6z"/>
<path d="M27277 5139 c7 -7 15 -10 18 -7 3 3 -2 9 -12 12 -14 6 -15 5 -6 -5z"/>
<path d="M21804 5088 l-29 -33 33 29 c30 28 37 36 29 36 -2 0 -16 -15 -33 -32z"/>
<path d="M27350 5086 c0 -2 8 -10 18 -17 15 -13 16 -12 3 4 -13 16 -21 21 -21
13z"/>
<path d="M21739 5033 c-13 -16 -12 -17 4 -4 16 13 21 21 13 21 -2 0 -10 -8
-17 -17z"/>
<path d="M27400 5047 c0 -3 18 -20 40 -37 22 -17 40 -29 40 -27 0 3 -18 20
-40 37 -22 17 -40 29 -40 27z"/>
<path d="M27515 4950 c10 -11 20 -20 23 -20 3 0 -3 9 -13 20 -10 11 -20 20
-23 20 -3 0 3 -9 13 -20z"/>
<path d="M21634 4928 l-19 -23 23 19 c21 18 27 26 19 26 -2 0 -12 -10 -23 -22z"/>
<path d="M23298 4903 c7 -3 16 -2 19 1 4 3 -2 6 -13 5 -11 0 -14 -3 -6 -6z"/>
<path d="M23258 4893 c7 -3 16 -2 19 1 4 3 -2 6 -13 5 -11 0 -14 -3 -6 -6z"/>
<path d="M23218 4883 c7 -3 16 -2 19 1 4 3 -2 6 -13 5 -11 0 -14 -3 -6 -6z"/>
<path d="M23178 4873 c7 -3 16 -2 19 1 4 3 -2 6 -13 5 -11 0 -14 -3 -6 -6z"/>
<path d="M23138 4863 c7 -3 16 -2 19 1 4 3 -2 6 -13 5 -11 0 -14 -3 -6 -6z"/>
<path d="M23048 4843 c7 -3 16 -2 19 1 4 3 -2 6 -13 5 -11 0 -14 -3 -6 -6z"/>
<path d="M23008 4833 c7 -3 16 -2 19 1 4 3 -2 6 -13 5 -11 0 -14 -3 -6 -6z"/>
<path d="M22878 4803 c7 -3 16 -2 19 1 4 3 -2 6 -13 5 -11 0 -14 -3 -6 -6z"/>
<path d="M22748 4773 c7 -3 16 -2 19 1 4 3 -2 6 -13 5 -11 0 -14 -3 -6 -6z"/>
<path d="M22708 4763 c7 -3 16 -2 19 1 4 3 -2 6 -13 5 -11 0 -14 -3 -6 -6z"/>
<path d="M27840 4677 c0 -2 15 -16 33 -33 l32 -29 -29 33 c-28 30 -36 37 -36
29z"/>
<path d="M27939 4588 c19 -21 37 -36 39 -33 3 3 3 6 1 8 -2 1 -20 15 -39 32
l-35 30 34 -37z"/>
<path d="M28020 4515 c19 -19 36 -35 39 -35 3 0 -10 16 -29 35 -19 19 -36 35
-39 35 -3 0 10 -16 29 -35z"/>
<path d="M21913 4470 c-35 -22 -63 -42 -63 -46 0 -6 9 -1 93 54 32 21 44 32
35 32 -2 0 -31 -18 -65 -40z"/>
<path d="M28105 4440 c10 -11 20 -20 23 -20 3 0 -3 9 -13 20 -10 11 -20 20
-23 20 -3 0 3 -9 13 -20z"/>
<path d="M21810 4399 c-22 -18 -22 -19 -3 -10 12 6 25 16 28 21 9 15 3 12 -25
-11z"/>
<path d="M28200 4355 c19 -19 36 -35 39 -35 3 0 -10 16 -29 35 -19 19 -36 35
-39 35 -3 0 10 -16 29 -35z"/>
<path d="M21741 4340 c-18 -17 -29 -30 -24 -30 5 0 22 14 38 30 37 38 30 38
-14 0z"/>
<path d="M21669 4263 l-24 -28 28 24 c15 14 27 26 27 28 0 8 -8 1 -31 -24z"/>
<path d="M21589 4163 c-13 -16 -12 -17 4 -4 16 13 21 21 13 21 -2 0 -10 -8
-17 -17z"/>
<path d="M21516 4055 c-9 -14 -23 -37 -32 -52 l-16 -28 20 24 c24 29 55 81 49
81 -3 0 -12 -11 -21 -25z"/>
<path d="M21450 3950 c-6 -11 -8 -20 -6 -20 3 0 10 9 16 20 6 11 8 20 6 20 -3
0 -10 -9 -16 -20z"/>
<path d="M21410 3880 c-6 -11 -8 -20 -6 -20 3 0 10 9 16 20 6 11 8 20 6 20 -3
0 -10 -9 -16 -20z"/>
<path d="M21001 3814 c0 -11 3 -14 6 -6 3 7 2 16 -1 19 -3 4 -6 -2 -5 -13z"/>
<path d="M21365 3799 c-4 -6 -5 -12 -2 -15 2 -3 7 2 10 11 7 17 1 20 -8 4z"/>
<path d="M21335 3739 c-9 -17 -15 -33 -13 -35 3 -2 12 12 21 31 21 43 13 47
-8 4z"/>
<path d="M20981 3744 c0 -11 3 -14 6 -6 3 7 2 16 -1 19 -3 4 -6 -2 -5 -13z"/>
<path d="M20961 3664 c-7 -30 -11 -57 -8 -60 2 -2 9 21 16 52 7 30 11 57 8 60
-2 2 -9 -21 -16 -52z"/>
<path d="M21260 3586 c-5 -15 -15 -36 -20 -47 -6 -10 -8 -19 -6 -19 9 0 48 82
42 87 -3 3 -10 -6 -16 -21z"/>
<path d="M20941 3564 c0 -11 3 -14 6 -6 3 7 2 16 -1 19 -3 4 -6 -2 -5 -13z"/>
<path d="M20464 2408 l-19 -23 25 20 c14 11 27 21 29 22 2 2 0 3 -6 3 -5 0
-18 -10 -29 -22z"/>
<path d="M20204 2168 l-19 -23 23 19 c21 18 27 26 19 26 -2 0 -12 -10 -23 -22z"/>
<path d="M20119 2073 c-13 -16 -12 -17 4 -4 16 13 21 21 13 21 -2 0 -10 -8
-17 -17z"/>
<path d="M20001 1927 c-13 -21 -12 -21 5 -5 10 10 16 20 13 22 -3 3 -11 -5
-18 -17z"/>
<path d="M19796 1595 c-9 -26 -7 -32 5 -12 6 10 9 21 6 23 -2 3 -7 -2 -11 -11z"/>
</g>
</svg>
